<svg xmlns="http://www.w3.org/2000/svg" width="86.095" height="77.485" viewBox="0 0 86.095 77.485">
  <path id="coins" d="M86.079,28.828c-.142-2.455-3.062-4.374-8.9-5.837a3.235,3.235,0,0,0,.309-1.343V11.609h-.024C76.947,3.247,42.679,3,38.743,3S.538,3.247.024,11.609H0V11.8H0v9.856c.007,2.726,3.526,4.86,8.76,6.448a3.147,3.147,0,0,0-.129.727H8.609v.187h0v9.839C2.97,40.306.154,42.2.014,44.612H0V44.8H0v9.856c0,1.9,1.716,3.508,4.517,4.85a3.161,3.161,0,0,0-.191.893H4.3v.187h0v9.856c.011,4.773,10.758,7.736,22.7,9.119a1.317,1.317,0,0,0,.261.053c.027,0,.05-.014.077-.016,2.3.26,4.64.462,6.955.607a1.185,1.185,0,0,0,.142.029c.027,0,.049-.014.075-.016,2.939.178,5.83.268,8.535.268s5.6-.09,8.535-.27c.026,0,.049.016.075.016.05,0,.093-.024.142-.029,2.315-.145,4.653-.346,6.955-.607.027,0,.05.014.077.014a1.318,1.318,0,0,0,.261-.053c11.94-1.383,22.684-4.348,22.7-9.122V60.4h-.023c-.1-1.759-1.6-3.227-4.562-4.454a3.208,3.208,0,0,0,.28-1.291V45.272c5.151-1.584,8.6-3.7,8.609-6.405V28.828ZM74.46,55.117l-.489.429a12.837,12.837,0,0,1-3.66,1.98V50.685a21.353,21.353,0,0,0,4.3-1.974v5.938A.913.913,0,0,1,74.46,55.117ZM42.367,61.785c-.209.006-.42.009-.631.013-.512.01-1.037.013-1.557.017V54.648q.592-.006,1.184-.017l.228,0q2.167-.041,4.328-.138v7.165q-.461.024-.927.043C44.128,61.735,43.255,61.764,42.367,61.785Zm-6.266.02q-.986-.017-1.962-.047l-.241-.009q-1.173-.039-2.329-.1V54.49q2.157.1,4.328.138l.227,0q.592.011,1.184.017v7.172c-.278,0-.557,0-.834-.007C36.348,61.811,36.226,61.807,36.1,61.805ZM10.184,58.534l-.139-.04V51.562c1.34.362,2.781.692,4.3.992v7q-1.976-.42-3.639-.875C10.535,58.631,10.354,58.584,10.184,58.534ZM40.429,70.416q.592.011,1.184.017v7.173q-2.975-.028-5.74-.166V70.276q2.157.1,4.328.138Zm5.466,0q2.167-.041,4.328-.138v7.164q-2.764.136-5.74.166V70.432q.592-.006,1.184-.017Zm11.5-.649v7.126q-2.068.217-4.3.377V70.111C54.547,70.016,55.984,69.9,57.4,69.763Zm2.87-.31q2.219-.267,4.3-.606v7.045q-2.028.357-4.3.657Zm7.175-1.118c1.524-.3,2.965-.63,4.3-.992v6.932c-1.279.369-2.718.726-4.3,1.063Zm-48.787,0v7c-1.587-.337-3.026-.694-4.3-1.063V67.344C15.689,67.706,17.13,68.037,18.654,68.336Zm2.87.514q2.083.338,4.3.606v7.1q-2.275-.3-4.3-.657Zm7.175.914c1.412.136,2.85.253,4.3.349v7.156q-2.236-.157-4.3-.377Zm-3.56-8.581-.436-.044c-.1-.01-.205-.023-.309-.033V53.981c1.412.136,2.85.253,4.3.349v7.15C27.493,61.394,26.3,61.3,25.138,61.183ZM21.524,53.67v7.1q-2.275-.3-4.3-.657V53.064Q19.3,53.4,21.524,53.67Zm28.219,7.743q-.474.037-.956.072V54.328c1.455-.1,2.893-.211,4.3-.349v7.126c-.887.093-1.794.181-2.725.257C50.159,61.381,49.951,61.4,49.743,61.412Zm6.219-.646v-7.1q2.219-.267,4.3-.606v7.045Q58.239,60.467,55.961,60.767Zm7.175-8.215c1.524-.3,2.965-.63,4.3-.992v6.932c-1.279.369-2.718.726-4.3,1.063ZM43.514,46c-1.079-.027-2.134-.069-3.17-.119l-.166-.007V38.706q2.157.1,4.328.138l.227,0q.592.011,1.184.017V46.03c-.7-.007-1.4-.01-2.085-.026ZM10.044,25.491V18.559c1.34.362,2.781.692,4.3.992v7c-.176-.037-.359-.075-.531-.112-.763-.168-1.508-.343-2.22-.528C11.056,25.775,10.541,25.633,10.044,25.491Zm26.079-3.861q.592.011,1.184.017v7.165c-1.931-.019-3.851-.069-5.74-.164V21.489q2.157.1,4.328.138Zm5.466,0q2.167-.041,4.328-.138v7.159c-.244.011-.478.029-.723.04l-.062,0c-.963.043-1.944.075-2.939.1l-.465.01c-.511.01-1.033.011-1.551.017V21.647q.592-.006,1.184-.017Zm32.7.72-.04-.009-.522.406a13.956,13.956,0,0,1-3.414,1.764V17.681a21.353,21.353,0,0,0,4.3-1.974v5.938A1.127,1.127,0,0,1,74.287,22.345Zm-18.325,5.41V20.667q2.219-.267,4.3-.606v7.034C58.906,27.336,57.474,27.557,55.961,27.755Zm7.175-1.213V19.55c1.524-.3,2.965-.63,4.3-.992v6.916C66.155,25.849,64.707,26.207,63.136,26.543ZM53.092,20.977v7.117q-2.079.22-4.3.38V21.325C50.242,21.229,51.68,21.113,53.092,20.977Zm-28.7,7.12v-7.12c1.412.136,2.85.253,4.3.349v7.143C27.237,28.363,25.8,28.244,24.393,28.1Zm-2.87-7.43v7.09c-.284-.037-.58-.067-.861-.106-.184-.026-.359-.053-.54-.079q-1.244-.179-2.435-.38l-.469-.083V20.063Q19.3,20.4,21.524,20.667ZM36.952,45.673l-.581-.043q-1.378-.108-2.69-.238l-.562-.057c-.039,0-.076-.01-.115-.013V38.2c1.412.136,2.85.253,4.3.349V45.7C37.191,45.687,37.068,45.681,36.952,45.673ZM27.471,44.6c-.568-.09-1.1-.188-1.643-.283V37.281q2.083.338,4.3.606v7.1c-.878-.116-1.738-.237-2.563-.366Q27.521,44.607,27.471,44.6Zm-4.513-7.833V43.76q-2.378-.51-4.3-1.078V35.776C19.994,36.138,21.435,36.469,22.959,36.768ZM15.784,34.9v6.817c-2.256-.871-3.711-1.761-4.184-2.553L11.5,39a.907.907,0,0,1-.024-.136V32.925A21.354,21.354,0,0,0,15.784,34.9ZM50.2,38.844q2.167-.041,4.328-.138v7.157c-1.885.093-3.8.145-5.74.165V38.866q.592-.006,1.184-.017ZM68.742,44.35c-.63.109-1.266.217-1.918.316-.375.057-.758.112-1.142.166-.363.052-.74.1-1.109.143v-7.09q2.219-.267,4.3-.606v7.045Zm-9.716,1.225c-.535.044-1.088.073-1.63.112V38.544c1.455-.1,2.893-.211,4.3-.349v7.119c-.834.088-1.666.175-2.523.247Zm16.4-2.69c-.715.2-1.471.386-2.243.568-.357.083-.722.166-1.095.247-.11.024-.228.046-.34.07v-7c1.524-.3,2.965-.63,4.3-.992V42.71Zm7.784-13.963c-.132.974-2.34,2.27-6.282,3.488h0a96.314,96.314,0,0,1-23.088,3.45c-.515.022-1.029.043-1.554.06-.429.014-.86.027-1.3.039-1.188.026-2.393.044-3.636.044s-2.448-.019-3.636-.046c-.436-.01-.867-.024-1.3-.039-.527-.016-1.04-.039-1.554-.06a96.3,96.3,0,0,1-23.088-3.45h0c-3.91-1.208-6.114-2.494-6.278-3.464a.337.337,0,0,1,.024-.085c.1.024.207.044.306.069.561.133,1.136.263,1.722.386,2.851.614,6.011,1.118,9.377,1.5.011,0,.02.006.03.006h.007c2.293.261,4.672.466,7.114.611.019,0,.034.01.053.01s.017-.006.027-.006q2.637.155,5.341.22c1.1.027,2.187.042,3.241.042.753,0,1.525-.009,2.3-.023,10.426-.161,20.089-1.4,26.813-3.322.31-.088.613-.178.911-.268.182-.056.369-.11.545-.166.519-.166,1.017-.337,1.5-.515l.245-.095c.406-.154.8-.313,1.169-.475.108-.047.218-.093.323-.141.4-.179.782-.363,1.138-.554.161-.085.3-.172.451-.258.172-.1.344-.2.5-.3.09-.057.2-.112.284-.169C81.352,26.8,83.045,28.328,83.209,28.922ZM38.743,5.87c23.66,0,35.627,3.725,35.851,5.863-.174.97-2.376,2.251-6.276,3.457h0a96.314,96.314,0,0,1-23.088,3.45c-.515.022-1.029.043-1.554.06-.429.014-.86.027-1.3.039-1.188.027-2.393.046-3.636.046s-2.448-.019-3.636-.046c-.436-.01-.867-.024-1.3-.039-.527-.016-1.04-.039-1.554-.06A96.3,96.3,0,0,1,9.168,15.19h0c-3.9-1.205-6.1-2.487-6.276-3.457C3.115,9.595,15.082,5.87,38.743,5.87ZM2.87,21.648V15.706a21.353,21.353,0,0,0,4.3,1.974v6.87C4.384,23.5,2.873,22.456,2.87,21.648ZM9.821,41.506c.022.023.055.043.076.066,1.964,1.983,6.032,3.541,11.1,4.7.116.027.24.053.357.08q.557.125,1.131.244a110.665,110.665,0,0,0,16.25,2.061h.016q2.914.17,5.959.227c.9.019,1.782.03,2.646.03.99,0,2.006-.011,3.039-.036,1.877-.039,3.726-.116,5.55-.222.007,0,.013,0,.02,0s.023-.007.036-.007a110.98,110.98,0,0,0,16.565-2.121,26,26,0,0,1-4.244,1.659h0c-5.359,1.656-13.919,3.164-24.8,3.514-.323.01-.641.022-.969.03-.352.009-.709.014-1.066.022-.9.014-1.811.027-2.744.027-1.243,0-2.448-.019-3.636-.046-.436-.01-.867-.024-1.3-.039-.527-.016-1.04-.039-1.554-.06a96.3,96.3,0,0,1-23.088-3.45h0c-3.946-1.22-6.154-2.517-6.282-3.491C3.045,44.162,4.5,42.812,9.821,41.506ZM2.87,54.651V48.709a21.353,21.353,0,0,0,4.3,1.974v6.843l-.819-.319-.017.017C4.085,56.291,2.873,55.374,2.87,54.651Zm4.3,15.784V64.493a21.353,21.353,0,0,0,4.3,1.974v6.87C8.688,72.292,7.177,71.243,7.175,70.435Zm67.441,2.9V66.469a21.354,21.354,0,0,0,4.3-1.974v5.938C78.919,71.24,77.406,72.29,74.615,73.338ZM78.9,60.507c-.156.971-2.36,2.26-6.279,3.471h0a96.314,96.314,0,0,1-23.088,3.45c-.515.022-1.029.043-1.554.06-.429.014-.86.027-1.3.039-1.188.026-2.393.044-3.636.044s-2.449-.019-3.639-.046c-.432-.01-.858-.024-1.284-.039-.529-.017-1.046-.039-1.564-.06a96.314,96.314,0,0,1-23.088-3.45h0C9.677,62.8,7.484,61.559,7.209,60.6c.428.149.871.294,1.326.436l.138.042q.581.179,1.19.346c.154.043.309.086.465.128.23.062.465.121.7.181a104.683,104.683,0,0,0,19.1,2.713h.011c2.224.132,4.5.214,6.791.241.611.011,1.218.017,1.814.017.791,0,1.6-.01,2.419-.024,2.094-.034,4.16-.112,6.18-.232,0,0,.007,0,.011,0s.011,0,.019,0c2.461-.148,4.843-.359,7.132-.621.009,0,.016,0,.024,0,.032,0,.057-.016.089-.019,2.548-.294,4.965-.656,7.208-1.076.462-.085.917-.172,1.367-.263l.3-.062a38.556,38.556,0,0,0,10.422-3.392c.138-.075.267-.152.4-.228.159-.095.311-.191.459-.288s.3-.175.423-.265C78.027,59.243,78.808,60.147,78.9,60.507ZM78.92,41.77V34.9a21.353,21.353,0,0,0,4.3-1.974v5.938C83.223,39.672,81.711,40.722,78.92,41.77Z" transform="translate(0 -3)" fill="#6f9f33"/>
</svg>
