<svg xmlns="http://www.w3.org/2000/svg" width="102.632" height="91.485" viewBox="0 0 102.632 91.485">
  <g id="credit-cards-payment" transform="translate(0 -33.234)">
    <g id="Group_33" data-name="Group 33" transform="translate(0 33.234)">
      <path id="Path_67" data-name="Path 67" d="M241.669,46.643l-62.857-13.3a4.957,4.957,0,0,0-5.858,3.812l-1.194,7.674,72.526,15.348,1.194-7.674A4.957,4.957,0,0,0,241.669,46.643Z" transform="translate(-142.956 -33.234)" fill="#6f9f33"/>
      <path id="Path_68" data-name="Path 68" d="M72.28,173.245a5,5,0,0,0-6.14-3.474l-11.933,3.313-28.13-5.953-3.094,14.618-19.33,5.365a5,5,0,0,0-3.473,6.139l10.893,39.255a5,5,0,0,0,6.14,3.473L79.7,218.639a5,5,0,0,0,3.473-6.14L81.3,205.76l7.008,1.482a4.955,4.955,0,0,0,5.858-3.811L98.6,182.478,73.36,177.136ZM79.5,193.2l1.545-7.3a2.04,2.04,0,0,1,2.41-1.568l7.3,1.546a2.04,2.04,0,0,1,1.569,2.41l-1.545,7.3a2.039,2.039,0,0,1-2.41,1.568l-7.3-1.545A2.04,2.04,0,0,1,79.5,193.2ZM4.741,191.03l17.292-4.8,40.8-11.323,4.391-1.22a.914.914,0,0,1,.238-.032.943.943,0,0,1,.9.674l.516,1.856,1.615,5.82L6.23,199.841,4.1,192.166A.935.935,0,0,1,4.741,191.03Zm74.514,22.555a.938.938,0,0,1-.642,1.136L16.128,232.061a.909.909,0,0,1-.238.033.944.944,0,0,1-.9-.675l-6.354-22.9L72.9,190.689l3.919,14.122Z" transform="translate(0 -144.676)" fill="#6f9f33"/>
      <path id="Path_69" data-name="Path 69" d="M100.347,446.091a2.04,2.04,0,0,0-2.5-1.416l-7.3,2.026a2.039,2.039,0,0,0-1.415,2.5l2.025,7.3a2.038,2.038,0,0,0,2.5,1.415l7.3-2.025a2.039,2.039,0,0,0,1.416-2.5Z" transform="translate(-74.122 -375.615)" fill="#6f9f33"/>
    </g>
  </g>
</svg>
