<svg xmlns="http://www.w3.org/2000/svg" width="104.337" height="66" viewBox="0 0 104.337 66">
  <g id="shipped" transform="translate(0 -94.062)">
    <g id="Group_35" data-name="Group 35" transform="translate(0 94.062)">
      <g id="Group_34" data-name="Group 34" transform="translate(0 0)">
        <path id="Path_70" data-name="Path 70" d="M97.033,122.042l-2.7-10.808a1.634,1.634,0,0,0,1.293-1.6v-1.743a6.869,6.869,0,0,0-6.861-6.861H76.456V97.438a3.38,3.38,0,0,0-3.376-3.376H10.347A3.38,3.38,0,0,0,6.97,97.438v29.624a1.634,1.634,0,1,0,3.267,0V97.438a.109.109,0,0,1,.109-.109H73.079a.109.109,0,0,1,.109.109v29.624a1.634,1.634,0,1,0,3.267,0v-1.852h19.28a5.346,5.346,0,0,1,5.077,3.7h-5.08a1.634,1.634,0,0,0-1.634,1.634v3.485a5.125,5.125,0,0,0,5.119,5.119h1.852v7.188H96.8a10.343,10.343,0,0,0-19.556,0h-.787V134.033a1.634,1.634,0,1,0-3.267,0v12.307H39.293a10.343,10.343,0,0,0-19.556,0H10.347a.109.109,0,0,1-.109-.109v-3.594h7.079a1.634,1.634,0,1,0,0-3.267H1.634a1.634,1.634,0,1,0,0,3.267H6.97v3.594a3.38,3.38,0,0,0,3.376,3.376h8.825c0,.036,0,.072,0,.109a10.347,10.347,0,1,0,20.693,0c0-.037,0-.073,0-.109H76.676c0,.036,0,.072,0,.109a10.347,10.347,0,0,0,20.693,0c0-.037,0-.073,0-.109h5.34a1.634,1.634,0,0,0,1.634-1.634V130.547A8.617,8.617,0,0,0,97.033,122.042ZM76.456,104.3H88.763a3.6,3.6,0,0,1,3.594,3.594V108h-15.9Zm0,17.644V111.27H90.973l2.668,10.673H76.456ZM29.515,156.8a7.079,7.079,0,1,1,7.079-7.079A7.087,7.087,0,0,1,29.515,156.8Zm57.505,0a7.079,7.079,0,1,1,7.079-7.079A7.087,7.087,0,0,1,87.02,156.8Zm14.05-20.911H99.218a1.854,1.854,0,0,1-1.852-1.852v-1.852h3.7v3.7Z" transform="translate(0 -94.062)" fill="#6f9f33"/>
      </g>
    </g>
    <g id="Group_37" data-name="Group 37" transform="translate(26.391 148.256)">
      <g id="Group_36" data-name="Group 36" transform="translate(0 0)">
        <path id="Path_71" data-name="Path 71" d="M131.172,350.6a2.9,2.9,0,1,0,2.9,2.9A2.908,2.908,0,0,0,131.172,350.6Z" transform="translate(-128.267 -350.597)" fill="#6f9f33"/>
      </g>
    </g>
    <g id="Group_39" data-name="Group 39" transform="translate(86.534 148.256)">
      <g id="Group_38" data-name="Group 38" transform="translate(0 0)">
        <path id="Path_72" data-name="Path 72" d="M413.36,350.6a2.9,2.9,0,1,0,2.9,2.9A2.908,2.908,0,0,0,413.36,350.6Z" transform="translate(-410.455 -350.597)" fill="#6f9f33"/>
      </g>
    </g>
    <g id="Group_41" data-name="Group 41" transform="translate(43.929 139.699)">
      <g id="Group_40" data-name="Group 40">
        <path id="Path_73" data-name="Path 73" d="M227.622,316.393H206.633a1.406,1.406,0,0,0,0,2.811h20.989a1.406,1.406,0,0,0,0-2.811Z" transform="translate(-205.227 -316.393)" fill="#6f9f33"/>
      </g>
    </g>
    <g id="Group_43" data-name="Group 43" transform="translate(2.998 132.678)">
      <g id="Group_42" data-name="Group 42" transform="translate(0 0)">
        <path id="Path_74" data-name="Path 74" d="M36.5,282.188H18.508a1.406,1.406,0,0,0,0,2.811H36.5a1.406,1.406,0,0,0,0-2.811Z" transform="translate(-17.102 -282.188)" fill="#6f9f33"/>
      </g>
    </g>
    <g id="Group_45" data-name="Group 45" transform="translate(31.117 110.628)">
      <g id="Group_44" data-name="Group 44">
        <path id="Path_75" data-name="Path 75" d="M168.758,171.434a1.405,1.405,0,0,0-1.988,0l-12.5,12.5-6.5-6.5a1.405,1.405,0,0,0-1.988,1.988l7.5,7.5a1.405,1.405,0,0,0,1.987,0l13.493-13.493A1.406,1.406,0,0,0,168.758,171.434Z" transform="translate(-145.37 -171.023)" fill="#6f9f33"/>
      </g>
    </g>
  </g>
</svg>
