<svg xmlns="http://www.w3.org/2000/svg" width="72.773" height="81" viewBox="0 0 72.773 81">
  <g id="support" transform="translate(-26)">
    <g id="Group_47" data-name="Group 47" transform="translate(78.534 63)">
      <g id="Group_46" data-name="Group 46">
        <path id="Path_76" data-name="Path 76" d="M357.364,396a1.364,1.364,0,1,0,1.364,1.364A1.364,1.364,0,0,0,357.364,396Z" transform="translate(-356 -396)" fill="#6f9f33"/>
      </g>
    </g>
    <g id="Group_49" data-name="Group 49" transform="translate(26)">
      <g id="Group_48" data-name="Group 48" transform="translate(0)">
        <path id="Path_77" data-name="Path 77" d="M83.684,57.533l-7.519-2.506-2.7-5.4a17.327,17.327,0,0,0,4.69-9.166l.337-2.018h2.879A4.751,4.751,0,0,0,86.117,33.7V23.73a23.73,23.73,0,0,0-47.461,0V33.7a4.754,4.754,0,0,0,3.164,4.474v1.854a4.751,4.751,0,0,0,4.746,4.746h1.389a17.163,17.163,0,0,0,2.654,4.109c.224.258.458.507.7.75l-2.7,5.4-7.52,2.506C32.346,60.448,26,69.652,26,79.418A1.582,1.582,0,0,0,27.582,81H97.191a1.582,1.582,0,0,0,1.582-1.582C98.773,69.652,92.428,60.448,83.684,57.533ZM82.953,33.7a1.584,1.584,0,0,1-1.582,1.582H78.957c.4-3.115.67-6.43.778-9.695,0-.092.006-.182.009-.272h3.21ZM43.4,35.279A1.584,1.584,0,0,1,41.82,33.7V25.312h3.211q.008.248.017.5c0,.006,0,.011,0,.017h0c.111,3.175.375,6.4.768,9.451H43.4Zm3.164,6.328a1.584,1.584,0,0,1-1.582-1.582V38.443h1.3l.337,2.019c.064.384.143.766.234,1.146ZM44.987,22.148H41.88a20.567,20.567,0,0,1,41.012,0H79.787A16.023,16.023,0,0,0,63.8,6.328H60.971A16.023,16.023,0,0,0,44.987,22.148ZM60.971,9.492H63.8A12.864,12.864,0,0,1,76.625,22.371c0,.5,0,.931-.012,1.326,0,.005,0,.01,0,.016l-1.979-.283a25.421,25.421,0,0,1-14.292-7.146,1.582,1.582,0,0,0-1.119-.463,14.313,14.313,0,0,0-11,5.206A12.86,12.86,0,0,1,60.971,9.492ZM50.132,41.607c-.792-2.635-1.7-10.387-1.9-15.354l2.129-2.839A11.136,11.136,0,0,1,58.6,19a28.615,28.615,0,0,0,15.589,7.56l2.329.333c-.156,3.3-.474,6.62-.93,9.669v0c-.145.98-.259,1.611-.551,3.374A13.438,13.438,0,0,1,65.5,50.748a12.447,12.447,0,0,1-13.973-5.977h3.225a4.754,4.754,0,0,0,4.474,3.164h3.164a4.746,4.746,0,1,0,0-9.492H59.223a4.748,4.748,0,0,0-4.477,3.164ZM59.09,53.95a15.868,15.868,0,0,0,5.884.133l-2.8,2.956ZM60,59.339l-5.018,5.306a60.28,60.28,0,0,1-3.542-8.213l1.884-3.769Zm11.174-7.212,2.152,4.3a60.261,60.261,0,0,1-3.543,8.216l-5.371-5.371ZM57.641,43.189a1.582,1.582,0,0,1,1.582-1.582h3.164a1.582,1.582,0,1,1,0,3.164H59.223A1.584,1.584,0,0,1,57.641,43.189ZM29.227,77.836C29.854,70,35.07,62.875,42.09,60.534l6.659-2.219a63.418,63.418,0,0,0,4.5,9.767l.009.016h0a63.435,63.435,0,0,0,4.33,6.613l1.946,3.124Zm33.159-1.41-2.146-3.445q-.036-.058-.077-.112A60.325,60.325,0,0,1,56.6,67.543l5.642-5.966,5.945,5.945a60.25,60.25,0,0,1-3.577,5.347C64.532,72.972,64.642,72.809,62.387,76.426Zm2.849,1.41,1.946-3.124a63.412,63.412,0,0,0,4.361-6.665L71.566,68l0-.005a63.367,63.367,0,0,0,4.456-9.684l6.659,2.219C89.7,62.875,94.919,70,95.546,77.836H65.236Z" transform="translate(-26)" fill="#6f9f33"/>
      </g>
    </g>
    <g id="Group_51" data-name="Group 51" transform="translate(85.836 67.783)">
      <g id="Group_50" data-name="Group 50">
        <path id="Path_78" data-name="Path 78" d="M397.2,420.059a13.636,13.636,0,0,0-3.861-4.687,1.364,1.364,0,0,0-1.663,2.162,10.892,10.892,0,0,1,3.084,3.744,1.364,1.364,0,0,0,2.44-1.219Z" transform="translate(-391.139 -415.088)" fill="#6f9f33"/>
      </g>
    </g>
  </g>
</svg>
